<svg width="363" height="412" viewBox="0 0 363 412" fill="none" xmlns="http://www.w3.org/2000/svg">
<path d="M362.734 0.619995L329.688 370.819L181.145 412L33.011 370.877L0 0.619995H362.734Z" fill="#E44D26"/>
<path d="M181.367 380.523L301.397 347.246L329.637 30.894H181.367V380.523Z" fill="#F16529"/>
<path d="M117.127 121.716H181.367V76.3049H181.21H67.499L68.586 88.4879L79.747 213.627H181.367V168.217H121.277L117.127 121.716Z" fill="#EBEBEB"/>
<path d="M127.361 236.333H102.786H81.7759L88.1379 307.634L181.158 333.457L181.367 333.399V286.153L181.168 286.206L130.594 272.55L127.361 236.333Z" fill="#EBEBEB"/>
<path d="M181.21 213.627H237.128L231.857 272.521L181.21 286.191V333.435L274.304 307.634L274.987 299.962L285.658 180.411L286.766 168.217H274.529H181.21V213.627Z" fill="white"/>
<path d="M181.21 121.605V121.716H290.752H290.898L291.809 111.509L293.878 88.4879L294.964 76.3049H181.21V104.509V121.605Z" fill="white"/>
</svg>
